# xmcd
#
# Track frame offsets: 
#        150
#        10787
#        20821
#        31710
#        42641
#        53752
#        64261
#        72531
#        84207
#        95919
#        111284
#        121760
#        144788
#        154629
#        167929
#        180859
#        193014
#        203929
#        219300
#        230822
#        242022
#        255505
#        268942
#        279463
#        293060
#        303574
#        316867
#
# Disc length: 4393 seconds
#
# Revision: 8
# Processed by: cddbd v1.5.2PL0 Copyright (c) Steve Scherf et al.
# Submitted via: ExactAudioCopy v0.90b4
#
DISCID=8411271b
DTITLE=Various Artist - Atlantic Rhythm and Blues 1947-1974, Vol. 4 (1957-1960)
DYEAR=2006
DGENRE=R&B
TTITLE0=The Coasters - Young Blood
TTITLE1=The Bobbettes - Mr. Lee
TTITLE2=Clyde McPhatter - Long Lonely Nights
TTITLE3=Chuck Willis - Betty And Dupree
TTITLE4=Chuck Willis - What Am I Livin' For
TTITLE5=Chuck Willis - Hang Up My Rock And Roll Shoes
TTITLE6=The Coasters - Yakety Yak
TTITLE7=Clyde McPhatter - A Lover's Question
TTITLE8=LaVern Baker - I Cried A Tear
TTITLE9=Ray Charles - The Right Time
TTITLE10=The Coasters - Charlie Brown
TTITLE11=Ray Charles - What'd I Say (Parts 1 and 2)
TTITLE12=The Drifters - There Goes My Baby
TTITLE13=The Coasters - Along Came Jones
TTITLE14=Ray Charles - Let The Good Times Roll
TTITLE15=The Coasters - Poison Ivy
TTITLE16=The Drifters - Dance With Me
TTITLE17=Ray Charles - Just For A Thrill
TTITLE18=The Drifters - This Magic Moment
TTITLE19=The Drifters - Save The Last Dance For Me
TTITLE20=The Coasters - Shopping For Clothes
TTITLE21=Ben E. King - Spanish Harlem
TTITLE22=Ben E. King - Young Boy Blues
TTITLE23=Ben E. King - Stand By Me
TTITLE24=Carla Thomas - Gee Whiz
TTITLE25=LaVern Baker - Saved
TTITLE26=Solomon Burke - Just Out Of Reach (Of My Two Empty Arms)
EXTD=1957-1960\nCD issued 1991, Atlantic, 7 82305-2
EXTT0=The Coasters
EXTT1=The Bobbettes
EXTT2=Clyde McPhatter
EXTT3=Chuck Willis
EXTT4=Chuck Willis
EXTT5=Chuck Willis
EXTT6=The Coasters
EXTT7=Clyde McPhatter
EXTT8=LaVern Baker
EXTT9=Ray Charles
EXTT10=The Coasters
EXTT11=Ray Charles
EXTT12=The Drifters
EXTT13=The Coasters
EXTT14=Ray Charles
EXTT15=The Coasters
EXTT16=The Drifters
EXTT17=Ray Charles
EXTT18=The Drifters
EXTT19=The Drifters
EXTT20=The Coasters
EXTT21=Ben E. King
EXTT22=Ben E. King
EXTT23=Ben E. King
EXTT24=Carla Thomas
EXTT25=LaVern Baker
EXTT26=Solomon Burke
PLAYORDER=
